<?xml version="1.0" standalone="no"?>
<!DOCTYPE svg PUBLIC "-//W3C//DTD SVG 20010904//EN"
 "http://www.w3.org/TR/2001/REC-SVG-20010904/DTD/svg10.dtd">
<svg version="1.0" xmlns="http://www.w3.org/2000/svg"
 width="512.000000pt" height="512.000000pt" viewBox="0 0 512.000000 512.000000"
 preserveAspectRatio="xMidYMid meet">
<metadata>
Created by potrace 1.16, written by Peter Selinger 2001-2019
</metadata>
<g transform="translate(0.000000,512.000000) scale(0.100000,-0.100000)"
fill="#ffffff" stroke="none">
<path d="M2285 5108 c-116 -11 -312 -51 -442 -89 -824 -239 -1487 -896 -1737
-1723 -41 -132 -81 -333 -96 -468 -14 -136 -12 -431 4 -568 58 -479 248 -929
552 -1310 84 -105 273 -295 378 -380 258 -209 600 -386 921 -478 337 -97 774
-121 1125 -61 413 70 811 247 1160 517 109 85 337 313 422 422 280 363 454
763 525 1210 26 165 26 608 0 763 -26 151 -68 321 -117 462 -51 151 -178 408
-268 545 -429 656 -1131 1085 -1896 1159 -128 13 -402 12 -531 -1z m525 -522
c235 -32 433 -91 635 -190 216 -106 382 -224 549 -390 118 -118 183 -196 269
-326 316 -479 417 -1064 277 -1616 -161 -638 -624 -1164 -1240 -1408 -380
-150 -823 -179 -1225 -80 -364 89 -685 273 -960 549 -333 335 -531 749 -586
1230 -15 125 -6 408 16 530 78 439 268 806 576 1114 343 343 745 534 1254 594
79 10 341 5 435 -7z"/>
</g>
</svg>
