<?xml version="1.0" standalone="no"?>
<!DOCTYPE svg PUBLIC "-//W3C//DTD SVG 20010904//EN"
 "http://www.w3.org/TR/2001/REC-SVG-20010904/DTD/svg10.dtd">
<svg version="1.0" xmlns="http://www.w3.org/2000/svg"
 width="290.000000pt" height="307.000000pt" viewBox="0 0 290.000000 307.000000"
 preserveAspectRatio="xMidYMid meet">
<metadata>
Created by potrace 1.16, written by Peter Selinger 2001-2019
</metadata>
<g transform="translate(0.000000,307.000000) scale(0.100000,-0.100000)"
fill="#ffffff" stroke="none">
<path d="M935 3049 c-54 -26 -100 -73 -125 -126 -17 -36 -20 -63 -20 -163 l0
-120 -360 0 -360 0 -30 -27 c-58 -52 -49 -162 16 -192 14 -6 76 -11 139 -11
l115 0 0 -987 c0 -836 3 -998 15 -1051 41 -174 176 -311 350 -357 87 -22 1462
-23 1548 0 170 44 305 178 349 344 15 60 17 154 17 1059 l1 992 121 0 121 0
35 35 c33 33 35 38 31 87 -4 42 -11 57 -37 80 l-31 28 -360 0 -360 0 0 120 c0
108 -3 126 -24 169 -14 26 -41 62 -61 79 -71 63 -61 62 -579 62 -449 -1 -473
-2 -511 -21z m933 -221 c7 -7 12 -44 12 -95 l0 -83 -425 0 -425 0 0 88 c0 49
3 92 7 95 3 4 189 7 413 7 302 0 409 -3 418 -12z m480 -1405 c-3 -980 -3 -988
-24 -1033 -25 -54 -64 -94 -119 -124 -40 -21 -43 -21 -755 -21 -712 0 -715 0
-755 21 -55 30 -94 70 -119 124 -21 45 -21 53 -24 1033 l-3 987 901 0 901 0
-3 -987z"/>
<path d="M824 2146 l-34 -34 0 -785 c0 -771 0 -785 20 -810 48 -60 152 -57
190 6 19 31 20 56 20 807 0 852 4 802 -60 835 -50 26 -98 19 -136 -19z"/>
<path d="M1388 2164 c-60 -32 -58 -2 -58 -839 0 -843 -3 -808 61 -841 46 -23
108 -12 145 27 l29 30 3 775 c2 680 0 778 -13 804 -28 55 -109 76 -167 44z"/>
<path d="M1928 2164 c-60 -32 -58 -2 -58 -839 0 -852 -3 -812 67 -841 49 -21
103 -10 139 27 l29 30 3 775 c2 680 0 778 -13 804 -28 55 -109 76 -167 44z"/>
</g>
</svg>
