<?xml version="1.0" standalone="no"?>
<!DOCTYPE svg PUBLIC "-//W3C//DTD SVG 20010904//EN"
 "http://www.w3.org/TR/2001/REC-SVG-20010904/DTD/svg10.dtd">
<svg version="1.0" xmlns="http://www.w3.org/2000/svg"
 width="448.000000pt" height="384.000000pt" viewBox="0 0 448.000000 384.000000"
 preserveAspectRatio="xMidYMid meet">
<metadata>
Created by potrace 1.16, written by Peter Selinger 2001-2019
</metadata>
<g transform="translate(0.000000,384.000000) scale(0.100000,-0.100000)"
fill="#ffffff" stroke="none">
<path d="M185 3827 c-86 -33 -151 -101 -174 -182 -9 -30 -11 -480 -9 -1745 3
-1672 3 -1706 23 -1745 25 -50 80 -105 130 -130 39 -20 72 -20 2085 -20 2013
0 2046 0 2085 20 50 25 105 80 130 130 20 39 20 70 20 1765 0 1698 0 1726 -20
1765 -11 22 -39 59 -62 82 -82 79 105 73 -2157 72 -1521 0 -2029 -3 -2051 -12z
m3876 -317 c19 -6 46 -22 60 -36 l24 -26 6 -1316 c3 -724 4 -1318 4 -1319 -1
-2 -226 239 -501 534 -274 295 -511 545 -525 556 -38 27 -108 33 -152 13 -19
-10 -86 -60 -148 -113 -144 -121 -163 -133 -219 -133 -78 1 -70 -6 -438 392
-212 229 -293 310 -324 324 -57 25 -140 24 -195 -4 -50 -26 -15 14 -743 -864
l-585 -706 -3 1281 c-1 705 0 1296 3 1314 8 43 49 91 88 102 45 13 3601 14
3648 1z"/>
<path d="M3225 3186 c-136 -44 -243 -137 -303 -263 -37 -77 -37 -79 -37 -203
0 -124 0 -126 37 -203 50 -105 130 -185 235 -235 77 -37 79 -37 203 -37 124 0
126 0 203 37 105 50 185 130 235 235 37 77 37 79 37 203 0 124 0 126 -37 203
-51 105 -130 185 -235 235 -74 35 -84 37 -188 39 -71 2 -124 -2 -150 -11z"/>
</g>
</svg>
