<?xml version="1.0" standalone="no"?>
<!DOCTYPE svg PUBLIC "-//W3C//DTD SVG 20010904//EN"
 "http://www.w3.org/TR/2001/REC-SVG-20010904/DTD/svg10.dtd">
<svg version="1.0" xmlns="http://www.w3.org/2000/svg"
 width="384.000000pt" height="480.000000pt" viewBox="0 0 384.000000 480.000000"
 preserveAspectRatio="xMidYMid meet">

<g transform="translate(0.000000,480.000000) scale(0.100000,-0.100000)"
fill="#ffffff" stroke="none">
<path d="M1931 4779 c-90 -36 -271 -223 -271 -281 0 -22 -23 -23 -105 -3 -78
19 -137 19 -210 -1 -79 -20 -137 -55 -212 -127 -67 -64 -100 -112 -133 -198
-47 -117 -50 -174 -50 -832 l0 -619 -74 69 c-215 198 -413 234 -639 116 -239
-125 -294 -426 -146 -803 44 -113 428 -882 520 -1040 149 -258 266 -416 439
-590 128 -130 212 -193 352 -265 243 -125 516 -184 933 -200 504 -20 855 81
1094 314 204 199 323 482 378 901 14 107 17 279 20 1220 3 790 1 1121 -7 1188
-22 175 -77 317 -155 400 -102 110 -288 157 -433 111 -18 -6 -35 -9 -38 -7 -2
3 -9 31 -15 63 -15 80 -49 144 -112 208 -61 63 -107 89 -208 117 -86 23 -186
25 -279 5 -91 -20 -100 -19 -100 9 0 39 -62 146 -105 181 -85 69 -117 79 -260
82 -113 3 -137 0 -184 -18z m220 -322 c19 -12 43 -41 54 -62 19 -39 20 -65 25
-807 5 -755 5 -767 26 -794 39 -53 71 -69 134 -69 63 0 95 16 134 69 21 27 21
40 26 685 5 605 6 659 23 684 29 45 82 63 169 58 34 -1 81 -41 104 -88 18 -36
19 -79 24 -675 5 -623 5 -637 26 -664 39 -53 71 -69 134 -69 63 0 95 16 134
69 20 27 21 43 26 484 6 513 3 498 80 541 77 43 150 20 190 -60 50 -97 50 -89
50 -1234 0 -650 -4 -1113 -10 -1180 -37 -395 -130 -640 -308 -806 -111 -103
-215 -155 -392 -194 -106 -23 -431 -31 -612 -16 -383 34 -595 103 -789 259
-147 119 -375 418 -549 722 -83 146 -267 508 -316 623 -19 44 -50 101 -69 126
-85 117 -156 303 -157 414 -1 60 3 73 30 110 16 23 38 44 48 46 11 1 26 10 35
18 31 27 122 -11 202 -85 29 -27 108 -134 188 -253 131 -196 140 -208 184
-224 39 -16 55 -16 114 -6 92 15 117 25 138 58 17 25 18 83 23 973 l5 945 24
48 c30 61 70 87 134 87 61 0 98 -21 129 -74 l23 -41 5 -627 c5 -613 5 -627 26
-654 39 -53 71 -69 134 -69 63 0 95 16 134 69 21 27 21 39 26 799 5 789 5 792
43 839 41 51 140 64 198 25z"/>
</g>
</svg>
