<?xml version="1.0" standalone="no"?>
<!DOCTYPE svg PUBLIC "-//W3C//DTD SVG 20010904//EN"
 "http://www.w3.org/TR/2001/REC-SVG-20010904/DTD/svg10.dtd">
<svg version="1.0" xmlns="http://www.w3.org/2000/svg"
 width="800.000000pt" height="798.000000pt" viewBox="0 0 800.000000 798.000000"
 preserveAspectRatio="xMidYMid meet">

<g transform="translate(0.000000,798.000000) scale(0.100000,-0.100000)"
fill="#ffffff" stroke="none">
<path d="M6121 7955 c-137 -31 -253 -79 -352 -145 -70 -47 -237 -208 -442
-423 l-131 -138 1044 -1044 1045 -1045 33 33 c116 110 473 491 503 537 122
184 173 349 173 560 0 232 -71 434 -215 615 -78 99 -848 857 -912 899 -84 54
-214 113 -304 138 -103 27 -347 35 -442 13z"/>
<path d="M2842 4957 l-1893 -1893 1096 -1094 c603 -602 1100 -1095 1105 -1095
5 0 184 173 397 385 213 212 957 950 1653 1641 696 691 1374 1363 1508 1494
133 131 242 244 242 252 0 15 -2184 2196 -2204 2201 -6 1 -863 -850 -1904
-1891z m760 -749 l-1602 -1603 -208 208 -207 208 1605 1599 1605 1599 205
-205 205 -204 -1603 -1602z m2515 696 l208 -206 -530 -525 c-292 -289 -1015
-1010 -1607 -1602 l-1077 -1075 -206 204 c-113 112 -205 208 -205 212 0 9
3192 3197 3202 3198 4 0 100 -93 215 -206z"/>
<path d="M471 2388 c-18 -95 -52 -272 -76 -393 -24 -121 -85 -429 -135 -685
-50 -256 -113 -575 -139 -710 -97 -486 -114 -580 -109 -585 3 -3 72 8 154 24
82 16 325 64 539 106 215 41 422 82 460 90 62 13 779 154 1200 236 83 16 161
31 174 35 21 4 11 14 -85 85 -131 96 -356 250 -401 273 -27 13 -68 16 -258 16
-260 0 -383 11 -504 46 -195 57 -297 153 -362 342 -37 107 -52 254 -53 512
l-1 245 -43 75 c-50 87 -304 452 -318 457 -5 2 -24 -75 -43 -169z"/>
</g>
</svg>
