<?xml version="1.0" standalone="no"?>
<!DOCTYPE svg PUBLIC "-//W3C//DTD SVG 20010904//EN"
 "http://www.w3.org/TR/2001/REC-SVG-20010904/DTD/svg10.dtd">
<svg version="1.0" xmlns="http://www.w3.org/2000/svg"
 width="528.000000pt" height="524.000000pt" viewBox="0 0 528.000000 524.000000"
 preserveAspectRatio="xMidYMid meet">
<metadata>
Created by potrace 1.16, written by Peter Selinger 2001-2019
</metadata>
<g transform="translate(0.000000,524.000000) scale(0.100000,-0.100000)"
fill="#ffffff" stroke="none">
<path d="M2613 5224 c-70 -35 -68 -21 -71 -506 -2 -336 -6 -438 -15 -438 -7 0
-69 -7 -138 -15 -975 -114 -1857 -663 -2216 -1379 -66 -131 -126 -306 -150
-436 -23 -127 -23 -391 0 -515 50 -275 168 -538 357 -794 439 -596 1222 -1061
1905 -1130 127 -13 162 -4 198 49 22 31 22 108 1 138 -8 12 -55 49 -104 82
-546 367 -931 1030 -871 1499 44 347 260 605 672 800 120 57 315 131 345 131
12 0 14 -54 14 -370 0 -402 2 -416 55 -458 20 -16 41 -22 74 -22 44 1 112 42
1311 798 1148 723 1267 801 1284 835 23 48 15 97 -22 137 -15 16 -589 382
-1275 814 -899 567 -1258 787 -1285 791 -24 4 -48 0 -69 -11z"/>
</g>
</svg>
