<?xml version="1.0" standalone="no"?>
<!DOCTYPE svg PUBLIC "-//W3C//DTD SVG 20010904//EN"
 "http://www.w3.org/TR/2001/REC-SVG-20010904/DTD/svg10.dtd">
<svg version="1.0" xmlns="http://www.w3.org/2000/svg"
 width="256.000000pt" height="256.000000pt" viewBox="0 0 256.000000 256.000000"
 preserveAspectRatio="xMidYMid meet">

<g transform="translate(0.000000,256.000000) scale(0.100000,-0.100000)"
fill="#ffffff" stroke="none">
<path d="M17 2542 c-14 -15 -17 -41 -17 -144 0 -163 -5 -158 162 -158 163 0
158 -5 158 162 0 163 5 158 -162 158 -108 0 -127 -2 -141 -18z m193 -142 l0
-50 -50 0 -50 0 0 50 0 50 50 0 50 0 0 -50z"/>
<path d="M1726 2544 c-13 -12 -16 -41 -16 -149 0 -123 2 -135 19 -145 11 -5
74 -10 140 -10 163 0 161 -2 161 160 0 162 2 160 -164 160 -100 0 -128 -3
-140 -16z m194 -144 l0 -50 -55 0 -55 0 0 50 0 50 55 0 55 0 0 -50z"/>
<path d="M544 2425 c-15 -23 -15 -27 0 -50 16 -25 19 -25 149 -25 143 0 157 5
157 50 0 45 -14 50 -157 50 -130 0 -133 0 -149 -25z"/>
<path d="M1184 2425 c-15 -23 -15 -27 0 -50 16 -25 19 -25 149 -25 143 0 157
5 157 50 0 45 -14 50 -157 50 -130 0 -133 0 -149 -25z"/>
<path d="M132 2014 c-21 -14 -22 -22 -22 -148 0 -142 5 -156 50 -156 45 0 50
14 50 156 0 126 -1 134 -22 148 -12 9 -25 16 -28 16 -3 0 -16 -7 -28 -16z"/>
<path d="M1830 2010 c-18 -18 -20 -33 -20 -138 0 -129 11 -162 55 -162 48 0
55 21 55 156 0 111 -2 126 -20 144 -11 11 -27 20 -35 20 -8 0 -24 -9 -35 -20z"/>
<path d="M132 1374 c-21 -14 -22 -22 -22 -148 0 -142 5 -156 50 -156 45 0 50
14 50 156 0 126 -1 134 -22 148 -12 9 -25 16 -28 16 -3 0 -16 -7 -28 -16z"/>
<path d="M1830 1370 c-18 -18 -20 -33 -20 -138 0 -129 11 -162 55 -162 48 0
55 21 55 160 0 122 -1 130 -22 144 -30 21 -44 20 -68 -4z"/>
<path d="M1505 1146 c-16 -23 -8 -45 201 -568 119 -298 224 -551 232 -560 21
-25 59 -22 76 5 8 12 47 99 86 192 l73 170 186 81 c160 69 187 84 195 107 8
22 6 31 -9 46 -34 32 -976 551 -1001 551 -14 0 -30 -10 -39 -24z m521 -353
c195 -108 351 -200 347 -203 -5 -4 -64 -30 -133 -59 -69 -29 -132 -60 -142
-69 -9 -10 -40 -73 -69 -140 -33 -79 -55 -119 -60 -110 -9 17 -309 766 -309
773 0 3 3 5 6 5 3 0 165 -89 360 -197z"/>
<path d="M22 894 c-21 -14 -22 -22 -22 -144 0 -104 3 -132 16 -144 12 -13 41
-16 149 -16 123 0 135 2 145 19 5 11 10 76 10 145 0 159 3 156 -160 156 -88 0
-121 -4 -138 -16z m188 -149 l0 -55 -50 0 -50 0 0 55 0 55 50 0 50 0 0 -55z"/>
<path d="M546 778 c-21 -30 -20 -44 4 -68 18 -18 33 -20 138 -20 129 0 162 11
162 55 0 48 -21 55 -160 55 -122 0 -130 -1 -144 -22z"/>
<path d="M1186 777 c-20 -29 -10 -66 21 -78 13 -5 73 -9 131 -9 119 0 152 12
152 55 0 48 -21 55 -160 55 -124 0 -130 -1 -144 -23z"/>
</g>
</svg>
