<?xml version="1.0" standalone="no"?>
<!DOCTYPE svg PUBLIC "-//W3C//DTD SVG 20010904//EN"
 "http://www.w3.org/TR/2001/REC-SVG-20010904/DTD/svg10.dtd">
<svg version="1.0" xmlns="http://www.w3.org/2000/svg"
 width="512.000000pt" height="512.000000pt" viewBox="0 0 512.000000 512.000000"
 preserveAspectRatio="xMidYMid meet">
<metadata>
Created by potrace 1.16, written by Peter Selinger 2001-2019
</metadata>
<g transform="translate(0.000000,512.000000) scale(0.100000,-0.100000)"
fill="#ffffff" stroke="none">
<path d="M195 5087 c-85 -33 -141 -92 -165 -173 -8 -27 -10 -134 -8 -344 3
-290 4 -307 25 -345 32 -60 70 -91 150 -120 66 -25 75 -26 129 -15 34 7 65 21
78 34 12 12 29 25 38 29 9 3 29 24 43 45 34 51 45 134 40 282 l-4 115 507 0
507 0 5 -75 c9 -125 5 -3978 -4 -3987 -4 -4 -70 -8 -146 -8 -76 0 -142 -3
-146 -7 -4 -5 -19 -8 -34 -8 -38 0 -109 -54 -127 -98 -8 -20 -20 -40 -26 -44
-15 -9 -22 -134 -9 -161 5 -12 16 -37 23 -56 15 -40 49 -74 104 -104 40 -22
46 -22 600 -25 387 -2 572 1 600 8 65 18 129 72 159 132 23 47 25 62 21 127
-6 85 -39 156 -81 171 -13 5 -24 14 -24 20 0 25 -70 39 -225 45 -88 4 -162 9
-165 11 -8 9 -5 4042 3 4050 9 9 983 11 992 3 3 -4 8 -62 11 -130 7 -173 11
-212 26 -224 7 -5 18 -23 23 -40 16 -45 80 -85 166 -101 65 -12 80 -12 120 1
44 15 89 47 89 64 0 5 8 11 18 13 11 3 29 27 42 53 22 45 23 57 25 351 3 282
2 307 -16 344 -10 21 -19 45 -19 52 0 18 -66 81 -110 104 -34 18 -96 19 -1620
21 -1198 1 -1592 -1 -1615 -10z"/>
<path d="M2767 3314 c-32 -7 -66 -19 -76 -28 -10 -9 -22 -16 -27 -16 -15 0
-59 -50 -80 -90 -15 -30 -19 -64 -21 -230 -3 -192 -2 -196 23 -247 14 -29 30
-53 35 -53 5 0 21 -13 35 -29 42 -47 93 -63 180 -55 87 8 159 46 170 89 3 14
12 25 19 25 7 0 21 22 30 49 28 86 25 85 280 85 123 0 227 -3 231 -7 9 -8 10
-2264 2 -2272 -3 -3 -44 -7 -92 -9 -65 -3 -96 -10 -122 -25 -19 -12 -42 -21
-50 -21 -8 0 -20 -11 -26 -25 -6 -14 -17 -25 -25 -25 -7 0 -13 -5 -13 -12 0
-6 -11 -35 -25 -64 -23 -49 -24 -58 -14 -99 6 -25 9 -48 6 -52 -10 -9 29 -76
65 -109 76 -72 53 -69 558 -69 448 0 456 0 496 22 48 26 112 93 118 125 3 13
10 46 16 75 11 48 10 57 -13 105 -28 61 -97 134 -147 155 -19 9 -73 17 -119
19 -46 2 -87 6 -90 9 -8 8 -6 2263 2 2271 11 12 446 11 469 0 13 -7 29 -33 40
-66 10 -30 27 -62 37 -70 10 -8 21 -23 24 -32 12 -34 89 -68 167 -73 85 -5
131 10 195 66 68 60 75 87 75 310 0 190 -1 196 -26 247 -14 29 -36 60 -48 70
-13 9 -21 22 -19 27 2 6 -7 11 -19 11 -13 1 -48 7 -78 14 -75 18 -2056 21
-2143 4z"/>
</g>
</svg>
