<?xml version="1.0" standalone="no"?>
<!DOCTYPE svg PUBLIC "-//W3C//DTD SVG 20010904//EN"
 "http://www.w3.org/TR/2001/REC-SVG-20010904/DTD/svg10.dtd">
<svg version="1.0" xmlns="http://www.w3.org/2000/svg"
 width="528.000000pt" height="524.000000pt" viewBox="0 0 528.000000 524.000000"
 preserveAspectRatio="xMidYMid meet">
<metadata>
Created by potrace 1.16, written by Peter Selinger 2001-2019
</metadata>
<g transform="translate(0.000000,524.000000) scale(0.100000,-0.100000)"
fill="#ffffff" stroke="none">
<path d="M2576 5233 c-32 -9 -2510 -1573 -2538 -1603 -37 -40 -45 -89 -22
-137 17 -34 136 -112 1284 -835 1199 -756 1267 -797 1311 -798 33 0 54 6 74
22 53 42 55 56 55 458 0 316 2 370 14 370 30 0 225 -74 345 -131 412 -195 628
-453 672 -800 60 -469 -325 -1132 -871 -1499 -49 -33 -96 -70 -104 -82 -21
-30 -21 -107 1 -138 36 -53 71 -62 198 -49 683 69 1466 534 1905 1130 189 256
307 519 357 794 23 124 23 388 0 515 -164 900 -1176 1676 -2366 1815 -69 8
-131 15 -138 15 -9 0 -13 102 -15 438 -3 402 -4 439 -21 464 -30 44 -87 65
-141 51z"/>
</g>
</svg>
