<?xml version="1.0" standalone="no"?>
<!DOCTYPE svg PUBLIC "-//W3C//DTD SVG 20010904//EN"
 "http://www.w3.org/TR/2001/REC-SVG-20010904/DTD/svg10.dtd">
<svg version="1.0" xmlns="http://www.w3.org/2000/svg"
 width="375.000000pt" height="375.000000pt" viewBox="0 0 375.000000 375.000000"
 preserveAspectRatio="xMidYMid meet">
<metadata>
Created by potrace 1.16, written by Peter Selinger 2001-2019
</metadata>
<g transform="translate(0.000000,375.000000) scale(0.100000,-0.100000)"
fill="#ffffff" stroke="none">
<path d="M1433 3740 c-262 -22 -529 -118 -758 -274 -117 -79 -312 -274 -391
-391 -283 -417 -354 -922 -197 -1395 173 -521 613 -912 1162 -1031 150 -33
419 -37 577 -11 227 39 453 130 624 250 l85 60 477 -476 478 -477 132 133 133
132 -477 478 -476 477 60 85 c120 171 211 397 250 624 26 158 22 427 -11 577
-133 615 -611 1092 -1216 1213 -75 15 -295 37 -340 34 -11 0 -61 -4 -112 -8z
m430 -403 c222 -59 380 -150 547 -317 166 -167 257 -322 317 -547 25 -90 27
-113 27 -293 0 -180 -2 -203 -27 -293 -60 -225 -151 -380 -317 -547 -167 -166
-322 -257 -547 -317 -90 -25 -113 -27 -293 -27 -180 0 -203 2 -293 27 -225 60
-380 151 -547 317 -166 167 -257 322 -317 547 -25 90 -27 113 -27 293 0 180 2
203 27 293 58 217 150 378 307 538 179 183 365 285 615 339 135 29 391 23 528
-13z"/>
<path d="M1390 2630 l0 -270 -270 0 -270 0 0 -180 0 -180 270 0 270 0 0 -270
0 -270 180 0 180 0 0 270 0 270 270 0 270 0 0 180 0 180 -270 0 -270 0 0 270
0 270 -180 0 -180 0 0 -270z"/>
</g>
</svg>
