<?xml version="1.0" standalone="no"?>
<!DOCTYPE svg PUBLIC "-//W3C//DTD SVG 20010904//EN"
 "http://www.w3.org/TR/2001/REC-SVG-20010904/DTD/svg10.dtd">
<svg version="1.0" xmlns="http://www.w3.org/2000/svg"
 width="375.000000pt" height="375.000000pt" viewBox="0 0 375.000000 375.000000"
 preserveAspectRatio="xMidYMid meet">
<metadata>
Created by potrace 1.16, written by Peter Selinger 2001-2019
</metadata>
<g transform="translate(0.000000,375.000000) scale(0.100000,-0.100000)"
fill="#ffffff" stroke="none">
<path d="M1420 3739 c-364 -35 -693 -191 -956 -454 -232 -232 -380 -516 -435
-835 -22 -131 -27 -371 -9 -491 101 -666 593 -1182 1255 -1316 128 -25 462
-25 590 0 208 42 426 134 585 246 l85 59 477 -476 478 -477 132 133 133 132
-476 478 -476 477 58 84 c135 194 226 428 260 669 17 123 6 422 -20 539 -152
685 -706 1171 -1403 1233 -126 11 -155 11 -278 -1z m443 -402 c222 -59 380
-150 547 -317 166 -167 257 -322 317 -547 25 -90 27 -113 27 -293 0 -180 -2
-203 -27 -293 -60 -225 -151 -380 -317 -547 -167 -166 -322 -257 -547 -317
-90 -25 -113 -27 -293 -27 -180 0 -203 2 -293 27 -225 60 -380 151 -547 317
-166 167 -257 322 -317 547 -25 90 -27 113 -27 293 0 180 2 203 27 293 58 217
150 378 307 538 179 183 365 285 615 339 135 29 391 23 528 -13z"/>
<path d="M850 2180 l0 -180 720 0 720 0 0 180 0 180 -720 0 -720 0 0 -180z"/>
</g>
</svg>
